<?xml version="1.0" encoding="utf-8"?>
<svg version="1.1" id="Capa_1" xmlns="http://www.w3.org/2000/svg" xmlns:xlink="http://www.w3.org/1999/xlink" x="0px" y="0px"
	 viewBox="0 0 357 67" style="enable-background:new 0 0 357 67;" xml:space="preserve">
<style type="text/css">
	.st0{fill:#0F0F0F;}
</style>
<g>
	<path class="st0" d="M42.86,41.96h-19.9l-6.49,8.44l4.39,13.75c3.73,1.47,7.8,2.29,12.05,2.29c4.22,0,8.25-0.8,11.95-2.25
		l4.21-13.6L42.86,41.96z"/>
	<polygon class="st0" points="21.56,33.78 23.29,39.32 42.57,39.32 43.18,37.35 48.55,20.14 38.58,13.07 32.93,9.06 17.3,20.14 	"/>
	<path class="st0" d="M48.1,62.73c5.37-2.8,9.88-7.02,13.01-12.18l-9.55,1.03L48.1,62.73z"/>
	<path class="st0" d="M61.7,17.51l-5.75,1.73l-4.79,1.44l-6.04,19.37L45,40.4l6.17,8.56l11.46-1.23c2.06-4.3,3.22-9.12,3.22-14.21
		C65.85,27.7,64.34,22.25,61.7,17.51"/>
	<path class="st0" d="M4.68,50.44c3.1,5.17,7.59,9.41,12.94,12.23l-3.61-11.29L4.68,50.44z"/>
	<path class="st0" d="M108.21,55.01c-11.88,0-21.51-9.63-21.51-21.51c0-2.08,0.3-4.08,0.84-5.98L75.25,39.49h-0.01
		C78.07,55.13,91.75,67,108.21,67c16.45,0,30.14-11.86,32.96-27.5h-12.3C126.27,48.46,118.01,55.01,108.21,55.01"/>
	<path class="st0" d="M108.21,0C91.75,0,78.07,11.86,75.24,27.5h12.3c2.6-8.96,10.86-15.52,20.66-15.52
		c9.8,0,18.07,6.55,20.66,15.52h-20.66l-12.3,11.99l32.96,0l12.3-11.99C138.34,11.86,124.66,0,108.21,0"/>
	<path class="st0" d="M20.85,40.38l-1.78-5.7l-4.38-14.02L4.33,17.2C1.58,22.01,0,27.58,0,33.51c0,5.05,1.14,9.84,3.17,14.11
		l11.23,1.13L20.85,40.38z"/>
	<path class="st0" d="M31.61,6.75l0.03-1.73l0.07-4.4C20.94,1.01,11.49,6.57,5.77,14.89l9.76,3.26L31.61,6.75z"/>
	<path class="st0" d="M50.34,18.16l9.94-2.99C54.61,6.75,45.16,1.09,34.36,0.62l-0.04,2.42l-0.06,3.72l5.81,4.12L50.34,18.16z"/>
</g>
</svg>
