<svg id="Capa_2" data-name="Capa 2" xmlns="http://www.w3.org/2000/svg" viewBox="0 0 393.07 126.6"><defs><style>.cls-1{fill:#fff;}</style></defs><g id="Logotipos"><path class="cls-1" d="M62.35,0A63.31,63.31,0,0,0,0,52.4H22.84L0,74.19a63.29,63.29,0,0,0,124.7,0H101.84a41,41,0,1,1,0-21.81H62.35L39.49,74.2h62.35L124.7,52.39h0A63.32,63.32,0,0,0,62.35,0Z"/><path class="cls-1" d="M180.7,30.45l-6-1.1c-6.37-1.17-8.45-3.06-8.45-6.18,0-3.84,3.25-6.57,9.1-6.57s9.36,2.73,10,7.41h7.35c-.52-8.32-7.22-13.85-17.16-13.85s-16.71,5.72-16.71,13.46c0,6.18,4.09,10.21,12.22,11.7l6,1.1c6.63,1.24,8.91,3.45,8.91,6.76,0,4-3.19,7-9.43,7S166,47.08,165.55,41.68H158.2c.19,9,7.21,15,17.88,15s17.23-5.92,17.23-14c0-6.44-4.16-10.73-12.61-12.29Z"/><path class="cls-1" d="M205.47,51.25c2.27,3.31,6.5,5.46,11.44,5.46,9,0,16.12-7.22,16.12-17.62s-7.15-17.68-16.12-17.68a13.85,13.85,0,0,0-11.51,5.53v-5h-7V69.2h7V51.26Zm10.08-23.6c6,0,10.34,4.55,10.34,11.44s-4.29,11.38-10.34,11.38-10.27-4.55-10.27-11.38S209.57,27.65,215.55,27.65Z"/><path class="cls-1" d="M253,56.71c9.88,0,17.42-7.35,17.42-17.62S262.91,21.41,253,21.41s-17.36,7.35-17.36,17.68S243.21,56.71,253,56.71Zm0-29.06c6,0,10.27,4.55,10.27,11.44S259.07,50.47,253,50.47s-10.21-4.55-10.21-11.38S247,27.65,253,27.65Z"/><path class="cls-1" d="M281.91,39.42c0-7.48,3.71-11,10.27-11h2.73V21.93h-2.67a11.4,11.4,0,0,0-10.4,5.85V21.93h-7V56.19h7V39.42Z"/><path class="cls-1" d="M307.34,56.19h7.6V50h-5.52c-3.45,0-4.68-1.24-4.68-4.68V28.05H313L315,21.94H304.74V13.29h-7V46.57c0,6.31,3.32,9.62,9.62,9.62Z"/><path class="cls-1" d="M345.35,45.66c0-5.07-3.19-8.06-10-9.3l-5.4-1c-4.94-.91-6.24-2-6.24-4,0-2.54,2.27-4.36,6.76-4.36s7.28,2,7.74,5.33h6.83c-.58-7-5.59-11-14.11-11s-14,4.36-14,10.47c0,4.62,2.92,7.74,9.88,9l5.4,1c4.81.91,6.31,2.08,6.31,4.29,0,2.86-2.47,4.81-7,4.81s-7.67-2.08-8.19-5.66h-6.76c.39,7.09,6.05,11.38,14.63,11.38s14.11-4.55,14.11-11.05Z"/><polygon class="cls-1" points="168.22 96.25 186.68 96.25 188.63 89.75 168.22 89.75 168.22 77.27 191.16 77.27 191.16 70.7 160.81 70.7 160.81 116.21 191.62 116.21 191.62 109.64 168.22 109.64 168.22 96.25"/><path class="cls-1" d="M236.2,81.43a13.27,13.27,0,0,0-11.83,6.7,10.66,10.66,0,0,0-10.4-6.7,12.8,12.8,0,0,0-10.73,5.46V82h-7v34.26h7V97.68c0-6.37,3.77-9.82,8.39-9.82,4.1,0,6.89,2.73,6.89,8.71V116.2h7V97.67c0-6.37,3.77-9.82,8.39-9.82,4.1,0,6.89,2.73,6.89,8.71v19.63h7V94.67c0-8.45-4.81-13.26-11.7-13.26Z"/><path class="cls-1" d="M269.5,81.43c-9.82,0-17.36,7.35-17.36,17.68s7.54,17.62,17.36,17.62,17.42-7.35,17.42-17.62S279.38,81.43,269.5,81.43Zm0,29.06c-6.05,0-10.21-4.55-10.21-11.38s4.16-11.44,10.21-11.44,10.27,4.55,10.27,11.44S275.54,110.49,269.5,110.49Z"/><path class="cls-1" d="M306.51,88.06,308.46,82H298.25V73.3h-7v33.28c0,6.31,3.32,9.62,9.62,9.62h7.6V110h-5.52c-3.45,0-4.68-1.24-4.68-4.68V88.05h8.26Z"/><path class="cls-1" d="M315.11,68.56a4.67,4.67,0,0,0-4.75,4.62,4.78,4.78,0,1,0,4.75-4.62Z"/><rect class="cls-1" x="311.6" y="81.95" width="7.02" height="34.26"/><path class="cls-1" d="M340.33,81.43c-9.82,0-17.36,7.35-17.36,17.68s7.54,17.62,17.36,17.62,17.42-7.35,17.42-17.62-7.54-17.68-17.42-17.68Zm0,29.06c-6.05,0-10.21-4.55-10.21-11.38s4.16-11.44,10.21-11.44,10.27,4.55,10.27,11.44S346.37,110.49,340.33,110.49Z"/><path class="cls-1" d="M380.59,81.43c-4.88,0-9,2-11.44,5.52V82h-7v34.26h7V97.81c0-6.44,4-10,9.17-10,4.68,0,7.67,2.86,7.67,8.78v19.57h7V94.76C393.07,86.31,388.13,81.43,380.59,81.43Z"/></g></svg>